G04 Layer_Color=8150272*
%FSAX44Y44*%
%MOMM*%
G71*
G01*
G75*
%ADD45C,1.7032*%
%ADD46R,1.7032X1.7032*%
%ADD47R,1.7032X1.7032*%
%ADD48O,1.4032X2.2032*%
%ADD49C,1.0032*%
D45*
X00199200Y00772160D02*
D03*
X00224600D02*
D03*
X00250000D02*
D03*
X00275400D02*
D03*
X00199200Y00050000D02*
D03*
X00224600D02*
D03*
X00250000D02*
D03*
X00275400D02*
D03*
X00431800Y00279400D02*
D03*
X00406400Y00076200D02*
D03*
D46*
X00300800Y00772160D02*
D03*
Y00050000D02*
D03*
X00431800Y00076200D02*
D03*
D47*
Y00254000D02*
D03*
D48*
X00224600Y00810000D02*
D03*
X00250000D02*
D03*
X00275400D02*
D03*
D49*
X00215770Y00652910D02*
D03*
X00314960Y00652780D02*
D03*
Y00636270D02*
D03*
X00195580D02*
D03*
X00093980Y00563880D02*
D03*
X00194310Y00553720D02*
D03*
X00321310Y00735330D02*
D03*
X00250190Y00703580D02*
D03*
X00435610Y00568960D02*
D03*
X00276860Y00685800D02*
D03*
X00446880Y00604360D02*
D03*
X00393850Y00524360D02*
D03*
X00415360Y00510610D02*
D03*
X00120650Y00806450D02*
D03*
X00129670Y00707260D02*
D03*
X00215770Y00511940D02*
D03*
X00308610Y00492760D02*
D03*
X00222250Y00482600D02*
D03*
X00186690Y00604520D02*
D03*
X00370840Y00533400D02*
D03*
X00448310Y00662940D02*
D03*
X00361950Y00554990D02*
D03*
X00436880Y00643890D02*
D03*
X00353060Y00543560D02*
D03*
X00325120Y00447040D02*
D03*
X00175260Y00454660D02*
D03*
M02*
