G04 Layer_Physical_Order=2*
G04 Layer_Color=12500520*
%FSAX44Y44*%
%MOMM*%
G71*
G01*
G75*
%ADD20C,0.2032*%
%ADD21C,0.3810*%
%ADD22C,0.2540*%
%ADD23C,1.5000*%
%ADD24R,1.5000X1.5000*%
%ADD25R,1.5000X1.5000*%
%ADD26O,1.2000X2.0000*%
%ADD27C,0.8000*%
G36*
X00225870Y00797553D02*
X00226829Y00797680D01*
X00228907Y00798540D01*
X00230691Y00799909D01*
X00232060Y00801693D01*
X00232920Y00803771D01*
X00233214Y00806000D01*
Y00810000D01*
X00241899D01*
Y00806000D01*
X00242175Y00803903D01*
X00242984Y00801949D01*
X00244272Y00800272D01*
X00245949Y00798984D01*
X00246892Y00798594D01*
Y00797750D01*
X00247129Y00796561D01*
X00247803Y00795553D01*
X00253072Y00790283D01*
X00254081Y00789609D01*
X00255270Y00789372D01*
X00260000D01*
Y00776245D01*
X00258730Y00775992D01*
X00258326Y00776967D01*
X00256798Y00778958D01*
X00254807Y00780486D01*
X00252488Y00781447D01*
X00250000Y00781774D01*
X00247512Y00781447D01*
X00245193Y00780486D01*
X00243202Y00778958D01*
X00241674Y00776967D01*
X00240713Y00774648D01*
X00240386Y00772160D01*
X00240713Y00769672D01*
X00241674Y00767353D01*
X00243202Y00765362D01*
X00245193Y00763834D01*
X00247512Y00762873D01*
X00250000Y00762546D01*
X00252488Y00762873D01*
X00254807Y00763834D01*
X00256798Y00765362D01*
X00258326Y00767353D01*
X00258730Y00768328D01*
X00260000Y00768075D01*
Y00697284D01*
X00258827Y00696798D01*
X00255282Y00700343D01*
X00255872Y00701226D01*
X00256340Y00703580D01*
X00255872Y00705934D01*
X00254539Y00707929D01*
X00252544Y00709262D01*
X00250190Y00709730D01*
X00247836Y00709262D01*
X00245841Y00707929D01*
X00244508Y00705934D01*
X00244040Y00703580D01*
X00244508Y00701226D01*
X00245841Y00699231D01*
X00247836Y00697898D01*
X00249210Y00697625D01*
X00275933Y00670902D01*
X00276941Y00670229D01*
X00278130Y00669992D01*
X00446335D01*
X00446460Y00668722D01*
X00445956Y00668622D01*
X00443961Y00667289D01*
X00442628Y00665294D01*
X00442160Y00662940D01*
X00442628Y00660586D01*
X00443961Y00658591D01*
X00444943Y00657935D01*
Y00642745D01*
X00443887Y00641688D01*
X00442717Y00642314D01*
X00443030Y00643890D01*
X00442562Y00646244D01*
X00441229Y00648239D01*
X00439234Y00649572D01*
X00436880Y00650040D01*
X00434526Y00649572D01*
X00432531Y00648239D01*
X00431875Y00647257D01*
X00373380D01*
X00372092Y00647000D01*
X00370999Y00646271D01*
X00350679Y00625951D01*
X00349950Y00624858D01*
X00349693Y00623570D01*
Y00548565D01*
X00348711Y00547909D01*
X00347378Y00545914D01*
X00346910Y00543560D01*
X00347378Y00541206D01*
X00348711Y00539211D01*
X00349690Y00538557D01*
X00349446Y00537193D01*
X00349044Y00537097D01*
X00344997Y00541144D01*
Y00582930D01*
X00344740Y00584218D01*
X00344011Y00585311D01*
X00322421Y00606901D01*
X00321328Y00607630D01*
X00320040Y00607887D01*
X00191695D01*
X00191039Y00608869D01*
X00189044Y00610202D01*
X00186690Y00610670D01*
X00184336Y00610202D01*
X00182341Y00608869D01*
X00181008Y00606874D01*
X00180540Y00604520D01*
X00181008Y00602166D01*
X00182341Y00600171D01*
X00184336Y00598838D01*
X00186690Y00598370D01*
X00189044Y00598838D01*
X00191039Y00600171D01*
X00191695Y00601153D01*
X00318645D01*
X00338263Y00581535D01*
Y00539750D01*
X00338520Y00538462D01*
X00339249Y00537369D01*
X00345599Y00531019D01*
X00346692Y00530290D01*
X00347980Y00530033D01*
X00365835D01*
X00366491Y00529051D01*
X00368486Y00527718D01*
X00370840Y00527250D01*
X00373194Y00527718D01*
X00375189Y00529051D01*
X00376522Y00531046D01*
X00376990Y00533400D01*
X00376522Y00535754D01*
X00375189Y00537749D01*
X00373194Y00539082D01*
X00370840Y00539550D01*
X00368486Y00539082D01*
X00366491Y00537749D01*
X00365835Y00536767D01*
X00355862D01*
X00355829Y00536850D01*
X00355651Y00538037D01*
X00357409Y00539211D01*
X00358742Y00541206D01*
X00359210Y00543560D01*
X00358742Y00545914D01*
X00357409Y00547909D01*
X00356427Y00548565D01*
Y00550285D01*
X00356454Y00550293D01*
X00357697Y00550577D01*
X00359596Y00549308D01*
X00361950Y00548840D01*
X00364304Y00549308D01*
X00366299Y00550641D01*
X00367632Y00552636D01*
X00368100Y00554990D01*
X00367632Y00557344D01*
X00366299Y00559339D01*
X00365317Y00559995D01*
Y00613285D01*
X00382394Y00630363D01*
X00440690D01*
X00441978Y00630620D01*
X00443071Y00631349D01*
X00450691Y00638969D01*
X00451420Y00640062D01*
X00451677Y00641350D01*
Y00657935D01*
X00452659Y00658591D01*
X00453992Y00660586D01*
X00454460Y00662940D01*
X00454371Y00663388D01*
X00455541Y00664014D01*
X00456632Y00662923D01*
Y00631207D01*
X00433413Y00607988D01*
X00432739Y00606979D01*
X00432502Y00605790D01*
Y00574138D01*
X00431261Y00573309D01*
X00429928Y00571314D01*
X00429460Y00568960D01*
X00429928Y00566606D01*
X00431261Y00564611D01*
X00433256Y00563278D01*
X00435610Y00562810D01*
X00437964Y00563278D01*
X00439959Y00564611D01*
X00441292Y00566606D01*
X00441760Y00568960D01*
X00441292Y00571314D01*
X00439959Y00573309D01*
X00438718Y00574138D01*
Y00604503D01*
X00439649Y00605434D01*
X00440819Y00604808D01*
X00440730Y00604360D01*
X00441198Y00602006D01*
X00442531Y00600011D01*
X00444526Y00598678D01*
X00446880Y00598210D01*
X00449234Y00598678D01*
X00451229Y00600011D01*
X00452562Y00602006D01*
X00453030Y00604360D01*
X00452739Y00605824D01*
X00468288Y00621372D01*
X00468961Y00622381D01*
X00469198Y00623570D01*
Y00665480D01*
X00468961Y00666669D01*
X00468288Y00667678D01*
X00454318Y00681647D01*
X00453309Y00682321D01*
X00452120Y00682558D01*
X00284497D01*
X00282719Y00684336D01*
X00283010Y00685800D01*
X00282542Y00688154D01*
X00282057Y00688880D01*
X00282655Y00690000D01*
X00490000D01*
Y00050000D01*
X00310332D01*
Y00059532D01*
X00291268D01*
Y00050000D01*
X00285014D01*
X00284687Y00052488D01*
X00283726Y00054807D01*
X00282198Y00056798D01*
X00280207Y00058326D01*
X00277888Y00059287D01*
X00275400Y00059614D01*
X00272912Y00059287D01*
X00270593Y00058326D01*
X00268602Y00056798D01*
X00267074Y00054807D01*
X00266113Y00052488D01*
X00265786Y00050000D01*
X00259614D01*
X00259287Y00052488D01*
X00258326Y00054807D01*
X00256798Y00056798D01*
X00254807Y00058326D01*
X00252488Y00059287D01*
X00250000Y00059614D01*
X00247512Y00059287D01*
X00245193Y00058326D01*
X00243202Y00056798D01*
X00241674Y00054807D01*
X00240713Y00052488D01*
X00240386Y00050000D01*
X00234214D01*
X00233887Y00052488D01*
X00232926Y00054807D01*
X00231398Y00056798D01*
X00229407Y00058326D01*
X00227088Y00059287D01*
X00224600Y00059614D01*
X00222112Y00059287D01*
X00219793Y00058326D01*
X00217802Y00056798D01*
X00216274Y00054807D01*
X00215313Y00052488D01*
X00214986Y00050000D01*
X00209327D01*
X00208982Y00052621D01*
X00207970Y00055063D01*
X00206361Y00057161D01*
X00204263Y00058770D01*
X00201821Y00059782D01*
X00200470Y00059959D01*
Y00050000D01*
X00197930D01*
Y00059959D01*
X00196579Y00059782D01*
X00194137Y00058770D01*
X00192039Y00057161D01*
X00190430Y00055063D01*
X00189418Y00052621D01*
X00189073Y00050000D01*
X00010000D01*
Y00810000D01*
X00215986D01*
Y00806000D01*
X00216280Y00803771D01*
X00217140Y00801693D01*
X00218509Y00799909D01*
X00220293Y00798540D01*
X00222371Y00797680D01*
X00223330Y00797553D01*
Y00810000D01*
X00225870D01*
Y00797553D01*
D02*
G37*
%LPC*%
G36*
X00441840Y00086240D02*
X00433070D01*
Y00077470D01*
X00441840D01*
Y00086240D01*
D02*
G37*
G36*
X00175260Y00460810D02*
X00172906Y00460342D01*
X00170911Y00459009D01*
X00169578Y00457014D01*
X00169110Y00454660D01*
X00169578Y00452306D01*
X00170911Y00450311D01*
X00172906Y00448978D01*
X00175260Y00448510D01*
X00175655Y00448588D01*
X00201632Y00422612D01*
X00202934Y00421741D01*
X00204470Y00421436D01*
X00350127D01*
X00411276Y00360287D01*
Y00270510D01*
X00411581Y00268974D01*
X00412452Y00267672D01*
X00422268Y00257855D01*
Y00244468D01*
X00441332D01*
Y00263532D01*
X00427945D01*
X00419304Y00272173D01*
Y00361950D01*
X00418999Y00363486D01*
X00418128Y00364788D01*
X00354628Y00428288D01*
X00354494Y00428378D01*
X00354248Y00430070D01*
X00354460Y00430326D01*
X00357747D01*
X00427786Y00360287D01*
Y00288055D01*
X00426993Y00287726D01*
X00425002Y00286198D01*
X00423474Y00284207D01*
X00422513Y00281888D01*
X00422186Y00279400D01*
X00422513Y00276912D01*
X00423474Y00274593D01*
X00425002Y00272602D01*
X00426993Y00271074D01*
X00429312Y00270113D01*
X00431800Y00269786D01*
X00434288Y00270113D01*
X00436607Y00271074D01*
X00438598Y00272602D01*
X00440126Y00274593D01*
X00441087Y00276912D01*
X00441414Y00279400D01*
X00441087Y00281888D01*
X00440126Y00284207D01*
X00438598Y00286198D01*
X00436607Y00287726D01*
X00435814Y00288055D01*
Y00361950D01*
X00435509Y00363486D01*
X00434638Y00364788D01*
X00362248Y00437178D01*
X00360946Y00438049D01*
X00359410Y00438354D01*
X00339483D01*
X00331192Y00446645D01*
X00331270Y00447040D01*
X00330802Y00449394D01*
X00329469Y00451389D01*
X00327474Y00452722D01*
X00325120Y00453190D01*
X00322766Y00452722D01*
X00320771Y00451389D01*
X00319438Y00449394D01*
X00318970Y00447040D01*
X00319438Y00444686D01*
X00320771Y00442691D01*
X00322766Y00441358D01*
X00325120Y00440890D01*
X00325515Y00440968D01*
X00334982Y00431502D01*
X00335116Y00431412D01*
X00335362Y00429720D01*
X00335150Y00429464D01*
X00206133D01*
X00181332Y00454265D01*
X00181410Y00454660D01*
X00180942Y00457014D01*
X00179609Y00459009D01*
X00177614Y00460342D01*
X00175260Y00460810D01*
D02*
G37*
G36*
X00093980Y00570030D02*
X00091626Y00569562D01*
X00089631Y00568229D01*
X00088298Y00566234D01*
X00087830Y00563880D01*
X00088298Y00561526D01*
X00089631Y00559531D01*
X00091626Y00558198D01*
X00093980Y00557730D01*
X00095444Y00558021D01*
X00101943Y00551522D01*
X00102951Y00550849D01*
X00104140Y00550612D01*
X00189132D01*
X00189961Y00549371D01*
X00191956Y00548038D01*
X00194310Y00547570D01*
X00196664Y00548038D01*
X00198659Y00549371D01*
X00199992Y00551366D01*
X00200460Y00553720D01*
X00199992Y00556074D01*
X00198659Y00558069D01*
X00196664Y00559402D01*
X00194310Y00559870D01*
X00191956Y00559402D01*
X00189961Y00558069D01*
X00189132Y00556828D01*
X00105427D01*
X00099839Y00562416D01*
X00100130Y00563880D01*
X00099662Y00566234D01*
X00098329Y00568229D01*
X00096334Y00569562D01*
X00093980Y00570030D01*
D02*
G37*
G36*
X00430530Y00086240D02*
X00421760D01*
Y00077470D01*
X00430530D01*
Y00086240D01*
D02*
G37*
G36*
Y00074930D02*
X00421760D01*
Y00066160D01*
X00430530D01*
Y00074930D01*
D02*
G37*
G36*
X00441840D02*
X00433070D01*
Y00066160D01*
X00441840D01*
Y00074930D01*
D02*
G37*
G36*
X00406400Y00085814D02*
X00403912Y00085487D01*
X00401593Y00084526D01*
X00399602Y00082998D01*
X00398074Y00081007D01*
X00397113Y00078688D01*
X00396786Y00076200D01*
X00397113Y00073712D01*
X00398074Y00071393D01*
X00399602Y00069402D01*
X00401593Y00067874D01*
X00403912Y00066913D01*
X00406400Y00066586D01*
X00408888Y00066913D01*
X00411207Y00067874D01*
X00413198Y00069402D01*
X00414726Y00071393D01*
X00415687Y00073712D01*
X00416014Y00076200D01*
X00415687Y00078688D01*
X00414726Y00081007D01*
X00413198Y00082998D01*
X00411207Y00084526D01*
X00408888Y00085487D01*
X00406400Y00085814D01*
D02*
G37*
G36*
X00224600Y00781774D02*
X00222112Y00781447D01*
X00219793Y00780486D01*
X00217802Y00778958D01*
X00216274Y00776967D01*
X00215313Y00774648D01*
X00214986Y00772160D01*
X00215313Y00769672D01*
X00216274Y00767353D01*
X00217802Y00765362D01*
X00219793Y00763834D01*
X00222112Y00762873D01*
X00224600Y00762546D01*
X00227088Y00762873D01*
X00229407Y00763834D01*
X00231398Y00765362D01*
X00232926Y00767353D01*
X00233887Y00769672D01*
X00234214Y00772160D01*
X00233887Y00774648D01*
X00232926Y00776967D01*
X00231398Y00778958D01*
X00229407Y00780486D01*
X00227088Y00781447D01*
X00224600Y00781774D01*
D02*
G37*
G36*
X00197930Y00782119D02*
X00196579Y00781942D01*
X00194137Y00780930D01*
X00192039Y00779321D01*
X00190430Y00777223D01*
X00189418Y00774781D01*
X00189241Y00773430D01*
X00197930D01*
Y00782119D01*
D02*
G37*
G36*
X00200470D02*
Y00773430D01*
X00209159D01*
X00208982Y00774781D01*
X00207970Y00777223D01*
X00206361Y00779321D01*
X00204263Y00780930D01*
X00201821Y00781942D01*
X00200470Y00782119D01*
D02*
G37*
G36*
X00209159Y00770890D02*
X00200470D01*
Y00762201D01*
X00201821Y00762378D01*
X00204263Y00763390D01*
X00206361Y00764999D01*
X00207970Y00767097D01*
X00208982Y00769539D01*
X00209159Y00770890D01*
D02*
G37*
G36*
X00314960Y00642420D02*
X00312606Y00641952D01*
X00310611Y00640619D01*
X00309782Y00639378D01*
X00200758D01*
X00199929Y00640619D01*
X00197934Y00641952D01*
X00195580Y00642420D01*
X00193226Y00641952D01*
X00191231Y00640619D01*
X00189898Y00638624D01*
X00189430Y00636270D01*
X00189898Y00633916D01*
X00191231Y00631921D01*
X00193226Y00630588D01*
X00195580Y00630120D01*
X00197934Y00630588D01*
X00199929Y00631921D01*
X00200758Y00633162D01*
X00309782D01*
X00310611Y00631921D01*
X00312606Y00630588D01*
X00314960Y00630120D01*
X00317314Y00630588D01*
X00319309Y00631921D01*
X00320642Y00633916D01*
X00321110Y00636270D01*
X00320642Y00638624D01*
X00319309Y00640619D01*
X00317314Y00641952D01*
X00314960Y00642420D01*
D02*
G37*
G36*
X00215770Y00659060D02*
X00213416Y00658592D01*
X00211421Y00657259D01*
X00210088Y00655264D01*
X00209620Y00652910D01*
X00210088Y00650556D01*
X00211421Y00648561D01*
X00213416Y00647228D01*
X00215770Y00646760D01*
X00218124Y00647228D01*
X00220119Y00648561D01*
X00220944Y00649796D01*
X00309777Y00649679D01*
X00310611Y00648431D01*
X00312606Y00647098D01*
X00314960Y00646630D01*
X00317314Y00647098D01*
X00319309Y00648431D01*
X00320642Y00650426D01*
X00321110Y00652780D01*
X00320642Y00655134D01*
X00319309Y00657129D01*
X00317314Y00658462D01*
X00314960Y00658930D01*
X00312606Y00658462D01*
X00310611Y00657129D01*
X00309786Y00655894D01*
X00220953Y00656011D01*
X00220119Y00657259D01*
X00218124Y00658592D01*
X00215770Y00659060D01*
D02*
G37*
G36*
X00197930Y00770890D02*
X00189241D01*
X00189418Y00769539D01*
X00190430Y00767097D01*
X00192039Y00764999D01*
X00194137Y00763390D01*
X00196579Y00762378D01*
X00197930Y00762201D01*
Y00770890D01*
D02*
G37*
%LPD*%
D20*
X00215770Y00652910D02*
X00314960Y00652780D01*
X00195580Y00636270D02*
X00314960D01*
X00093980Y00563880D02*
X00104140Y00553720D01*
X00194310D01*
X00250000Y00797750D02*
Y00810000D01*
Y00797750D02*
X00255270Y00792480D01*
X00276860D01*
X00287020Y00782320D01*
Y00759460D02*
Y00782320D01*
Y00759460D02*
X00311150Y00735330D01*
X00321310D01*
X00250190Y00701040D02*
Y00703580D01*
Y00701040D02*
X00278130Y00673100D01*
X00450850D01*
X00459740Y00664210D01*
Y00629920D02*
Y00664210D01*
X00435610Y00605790D02*
X00459740Y00629920D01*
X00452120Y00679450D02*
X00466090Y00665480D01*
Y00623570D02*
Y00665480D01*
X00446880Y00604360D02*
X00466090Y00623570D01*
X00283210Y00679450D02*
X00452120D01*
X00435610Y00568960D02*
Y00605790D01*
X00276860Y00685800D02*
X00283210Y00679450D01*
D21*
X00325120Y00447040D02*
X00337820Y00434340D01*
X00359410D01*
X00431800Y00361950D01*
Y00279400D02*
Y00361950D01*
X00415290Y00270510D02*
X00431800Y00254000D01*
X00415290Y00270510D02*
Y00361950D01*
X00351790Y00425450D02*
X00415290Y00361950D01*
X00204470Y00425450D02*
X00351790D01*
X00175260Y00454660D02*
X00204470Y00425450D01*
D22*
X00186690Y00604520D02*
X00320040D01*
X00341630Y00582930D01*
Y00539750D02*
Y00582930D01*
Y00539750D02*
X00347980Y00533400D01*
X00370840D01*
X00448310Y00641350D02*
Y00662940D01*
X00440690Y00633730D02*
X00448310Y00641350D01*
X00381000Y00633730D02*
X00440690D01*
X00361950Y00614680D02*
X00381000Y00633730D01*
X00361950Y00554990D02*
Y00614680D01*
X00373380Y00643890D02*
X00436880D01*
X00353060Y00623570D02*
X00373380Y00643890D01*
X00353060Y00543560D02*
Y00623570D01*
D23*
X00199200Y00772160D02*
D03*
X00224600D02*
D03*
X00250000D02*
D03*
X00275400D02*
D03*
X00199200Y00050000D02*
D03*
X00224600D02*
D03*
X00250000D02*
D03*
X00275400D02*
D03*
X00431800Y00279400D02*
D03*
X00406400Y00076200D02*
D03*
D24*
X00300800Y00772160D02*
D03*
Y00050000D02*
D03*
X00431800Y00076200D02*
D03*
D25*
Y00254000D02*
D03*
D26*
X00224600Y00810000D02*
D03*
X00250000D02*
D03*
X00275400D02*
D03*
D27*
X00215770Y00652910D02*
D03*
X00314960Y00652780D02*
D03*
X00400000Y00450000D02*
D03*
X00450000Y00150000D02*
D03*
Y00200000D02*
D03*
Y00350000D02*
D03*
Y00400000D02*
D03*
Y00450000D02*
D03*
X00100000Y00750000D02*
D03*
X00050000D02*
D03*
Y00700000D02*
D03*
Y00650000D02*
D03*
Y00600000D02*
D03*
Y00550000D02*
D03*
X00100000Y00500000D02*
D03*
X00050000D02*
D03*
Y00450000D02*
D03*
X00100000D02*
D03*
X00150000D02*
D03*
X00250000Y00400000D02*
D03*
X00200000D02*
D03*
X00150000D02*
D03*
X00100000D02*
D03*
X00050000D02*
D03*
Y00350000D02*
D03*
X00100000D02*
D03*
X00150000D02*
D03*
X00200000D02*
D03*
X00250000D02*
D03*
X00200000Y00300000D02*
D03*
X00150000D02*
D03*
X00100000D02*
D03*
X00050000D02*
D03*
Y00250000D02*
D03*
X00100000D02*
D03*
X00150000D02*
D03*
X00200000D02*
D03*
X00150000Y00200000D02*
D03*
X00100000D02*
D03*
X00050000D02*
D03*
Y00150000D02*
D03*
X00100000D02*
D03*
X00150000D02*
D03*
Y00100000D02*
D03*
X00100000D02*
D03*
X00050000D02*
D03*
X00314960Y00636270D02*
D03*
X00195580D02*
D03*
X00093980Y00563880D02*
D03*
X00194310Y00553720D02*
D03*
X00321310Y00735330D02*
D03*
X00250190Y00703580D02*
D03*
X00435610Y00568960D02*
D03*
X00276860Y00685800D02*
D03*
X00446880Y00604360D02*
D03*
X00393850Y00524360D02*
D03*
X00415360Y00510610D02*
D03*
X00120650Y00806450D02*
D03*
X00129670Y00707260D02*
D03*
X00215770Y00511940D02*
D03*
X00308610Y00492760D02*
D03*
X00222250Y00482600D02*
D03*
X00186690Y00604520D02*
D03*
X00370840Y00533400D02*
D03*
X00448310Y00662940D02*
D03*
X00361950Y00554990D02*
D03*
X00436880Y00643890D02*
D03*
X00353060Y00543560D02*
D03*
X00325120Y00447040D02*
D03*
X00175260Y00454660D02*
D03*
M02*
