M48
;Layer_Color=6321
;FILE_FORMAT=4:4
METRIC
;TYPE=PLATED
T1F00S00C0.5000
T2F00S00C0.7000
T3F00S00C0.9000
%
T01
X00050000Y00100000
X00100000
X00150000
Y00150000
Y00200000
Y00250000
Y00300000
Y00350000
Y00400000
Y00450000
X00175260Y00454660
X00222250Y00482600
X00215770Y00511940
X00308610Y00492760
X00325120Y00447040
X00400000Y00450000
X00450000
Y00400000
Y00350000
Y00200000
Y00150000
X00200000Y00250000
Y00300000
Y00350000
Y00400000
X00250000
Y00350000
X00353060Y00543560
X00370840Y00533400
X00393850Y00524360
X00415360Y00510610
X00100000Y00500000
X00050000
Y00450000
X00100000
Y00400000
Y00350000
X00050000
Y00400000
Y00300000
X00100000
Y00250000
X00050000
Y00200000
X00100000
Y00150000
X00050000
Y00550000
Y00600000
Y00650000
Y00700000
Y00750000
X00100000
X00129670Y00707260
X00120650Y00806450
X00093980Y00563880
X00194310Y00553720
X00186690Y00604520
X00195580Y00636270
X00215770Y00652910
X00250190Y00703580
X00276860Y00685800
X00314960Y00652780
Y00636270
X00321310Y00735330
X00448310Y00662940
X00436880Y00643890
X00446880Y00604360
X00435610Y00568960
X00361950Y00554990
T02
X00224600Y00810000
X00250000
X00275400
T03
X00199200Y00050000
X00224600
X00250000
X00275400
X00300800
X00406400Y00076200
X00431800
Y00254000
Y00279400
X00300800Y00772160
X00275400
X00250000
X00224600
X00199200
M30
